{"title":"Thor 2 The Dark World (2013) R6 Teleysync AVC H264 - [P2PDL]","uid":9296848,"size":423419798,"categoryP":"video","categoryS":"movies","magnet":"?xt=urn:btih:fc88f707861ed21227249dbd6401fc6ee79108d3&amp;dn=+Thor+2+The+Dark+World+%282013%29+R6+Teleysync+AVC+H264+-+%5BP2PDL%5D&amp;tr=udp%3A%2F%2Ftracker.openbittorrent.com%3A80&amp;tr=udp%3A%2F%2Fopen.demonii.com%3A1337&amp;tr=udp%3A%2F%2Ftracker.coppersurfer.tk%3A6969&amp;tr=udp%3A%2F%2Fexodus.desync.com%3A6969","seeders":2,"leechers":1,"uploader":"TeX","files":-1,"time":1386172268,"description":" &lt;a href=&quot;http://ia.media-imdb.com/images/M/MV5BMTQyNzAwOTUxOF5BMl5BanBnXkFtZTcwMTE0OTc5OQ@@._V1_.jpg&quot; rel=&quot;nofollow&quot; target=&quot;_NEW&quot;&gt;http://ia.media-imdb.com/images/M/MV5BMTQyNzAwOTUxOF5BMl5BanBnXkFtZTcwMTE0OTc5OQ@@._V1_.jpg&lt;/a&gt;\n\nGeneral\nComplete name                            : /home/vyto/downloads/[www.P2PDL.com]Thor2: The Dark World (2013) R6 Teleysync H264 - [P2PDL].rmvb\nFormat                                   : RealMedia\nFile size                                : 404 MiB\nDuration                                 : 1h 41mn\nOverall bit rate                         : 548 Kbps\nMovie name                               : vv-rm\n\nVideo\nID                                       : 1\nFormat                                   : RealVideo 4\nCodec ID                                 : RV40\nCodec ID/Info                            : Based on AVC (H.264), Real Player 9\nDuration                                 : 1h 41mn\nBit rate                                 : 452 Kbps\nWidth                                    : 720 pixels\nHeight                                   : 408 pixels\nDisplay aspect ratio                     : 16:9\nFrame rate                               : 23.976 fps\nBits/(Pixel*Frame)                       : 0.064\nStream size                              : 327 MiB (81%)\n\nAudio\nID                                       : 0\nFormat                                   : AAC\nFormat/Info                              : Advanced Audio Codec\nFormat profile                           : LC\nCodec ID                                 : raac\nCodec ID/Info                            : Real Player 9\nDuration                                 : 1h 41mn\nBit rate                                 : 96.0 Kbps\nChannel(s)                               : 2 channels\nSampling rate                            : 44.1 KHz\nBit depth                                : 16 bits\nCompression mode                         : Lossy\nStream size                              : 69.5 MiB (17%)\n &lt;a href=&quot;\nhttp://ftp2.verypsp.com/ls2/1.jpg&quot; rel=&quot;nofollow&quot; target=&quot;_NEW&quot;&gt;\nhttp://ftp2.verypsp.com/ls2/1.jpg&lt;/a&gt; &lt;a href=&quot;\nhttp://ftp2.verypsp.com/ls2/2.jpg&quot; rel=&quot;nofollow&quot; target=&quot;_NEW&quot;&gt;\nhttp://ftp2.verypsp.com/ls2/2.jpg&lt;/a&gt; &lt;a href=&quot;\nhttp://ftp2.verypsp.com/ls2/3.jpg&quot; rel=&quot;nofollow&quot; target=&quot;_NEW&quot;&gt;\nhttp://ftp2.verypsp.com/ls2/3.jpg&lt;/a&gt;","torrent":{"xt":"urn:btih:fc88f707861ed21227249dbd6401fc6ee79108d3","amp;dn":"+Thor+2+The+Dark+World+%282013%29+R6+Teleysync+AVC+H264+-+%5BP2PDL%5D","amp;tr":["udp%3A%2F%2Ftracker.openbittorrent.com%3A80","udp%3A%2F%2Fopen.demonii.com%3A1337","udp%3A%2F%2Ftracker.coppersurfer.tk%3A6969","udp%3A%2F%2Fexodus.desync.com%3A6969"],"infoHash":"fc88f707861ed21227249dbd6401fc6ee79108d3","infoHashBuffer":{"type":"Buffer","data":[252,136,247,7,134,30,210,18,39,36,157,189,100,1,252,110,231,145,8,211]},"announce":[],"urlList":[]}}